<?xml version="1.0" encoding="UTF-8"?>
<svg width="64" height="64" viewBox="0 0 64 64" xmlns="http://www.w3.org/2000/svg">
  <!-- メイメイ - 飛行アニメーション フレーム1（翼上） -->
  
  <!-- 体（楕円形、淡いグリーン） -->
  <ellipse cx="32" cy="36" rx="12" ry="16" fill="#B8E6B8" stroke="#90C695" stroke-width="1.5"/>
  
  <!-- 翼（左）- 上向きに広がる -->
  <defs>
    <linearGradient id="wingGradientLeft1" x1="0%" y1="0%" x2="100%" y2="100%">
      <stop offset="0%" style="stop-color:#E6B3FF;stop-opacity:1" />
      <stop offset="50%" style="stop-color:#D8A2D8;stop-opacity:1" />
      <stop offset="100%" style="stop-color:#FFB6C1;stop-opacity:1" />
    </linearGradient>
  </defs>
  <ellipse cx="14" cy="28" rx="12" ry="16" fill="url(#wingGradientLeft1)" stroke="#C8A2C8" stroke-width="1" transform="rotate(-15 14 28)"/>
  
  <!-- 翼（右）- 上向きに広がる -->
  <defs>
    <linearGradient id="wingGradientRight1" x1="0%" y1="0%" x2="100%" y2="100%">
      <stop offset="0%" style="stop-color:#E6B3FF;stop-opacity:1" />
      <stop offset="50%" style="stop-color:#D8A2D8;stop-opacity:1" />
      <stop offset="100%" style="stop-color:#FFB6C1;stop-opacity:1" />
    </linearGradient>
  </defs>
  <ellipse cx="50" cy="28" rx="12" ry="16" fill="url(#wingGradientRight1)" stroke="#C8A2C8" stroke-width="1" transform="rotate(15 50 28)"/>
  
  <!-- 頭（円形、淡いグリーン） -->
  <circle cx="32" cy="20" r="10" fill="#B8E6B8" stroke="#90C695" stroke-width="1.5"/>
  
  <!-- 大きなクチバシ（進行方向・上向き） -->
  <polygon points="32,10 38,18 26,18" fill="#FF6347" stroke="#FF4500" stroke-width="1"/>
  <polygon points="32,12 36,16 28,16" fill="#FF7F50"/>
  
  <!-- 目（左） -->
  <circle cx="27" cy="22" r="3" fill="white" stroke="#333" stroke-width="0.8"/>
  <circle cx="27" cy="22" r="2" fill="#8B4513"/>
  <circle cx="27.8" cy="21.2" r="0.8" fill="white"/>
  
  <!-- 目（右） -->
  <circle cx="37" cy="22" r="3" fill="white" stroke="#333" stroke-width="0.8"/>
  <circle cx="37" cy="22" r="2" fill="#8B4513"/>
  <circle cx="37.8" cy="21.2" r="0.8" fill="white"/>
  
  <!-- リボン（体の左側） -->
  <ellipse cx="20" cy="36" rx="3" ry="6" fill="#FF69B4" stroke="#E91E63" stroke-width="0.8"/>
  <circle cx="20" cy="36" r="2" fill="#FF1493" stroke="#C2185B" stroke-width="0.5"/>
  
  <!-- リボン（体の右側） -->
  <ellipse cx="44" cy="36" rx="3" ry="6" fill="#FF69B4" stroke="#E91E63" stroke-width="0.8"/>
  <circle cx="44" cy="36" r="2" fill="#FF1493" stroke="#C2185B" stroke-width="0.5"/>
  
  <!-- ほっぺ（左） -->
  <circle cx="24" cy="25" r="2.5" fill="#FFB6C1" opacity="0.7"/>
  
  <!-- ほっぺ（右） -->
  <circle cx="40" cy="25" r="2.5" fill="#FFB6C1" opacity="0.7"/>
  
  <!-- 尻尾（下向き） -->
  <ellipse cx="32" cy="52" rx="6" ry="4" fill="#B8E6B8" stroke="#90C695" stroke-width="1"/>
  
  <!-- 配達バッグ（背中に） -->
  <rect x="26" y="42" width="12" height="8" rx="2" fill="#8B4513" stroke="#654321" stroke-width="1"/>
  <rect x="27" y="43" width="10" height="6" fill="#D2691E"/>
  <line x1="32" y1="42" x2="32" y2="50" stroke="#654321" stroke-width="1"/>
</svg>
