<?xml version="1.0" encoding="UTF-8"?>
<svg width="64" height="64" viewBox="0 0 64 64" xmlns="http://www.w3.org/2000/svg">
  <!-- メイメイ - 気絶状態（翼上下反転） -->
  
  <!-- 体（楕円形、少し傾いている） -->
  <ellipse cx="32" cy="36" rx="12" ry="16" fill="#B8E6B8" stroke="#90C695" stroke-width="1.5" transform="rotate(3 32 36)"/>
  
  <!-- 翼（左）- だらんと下がっている、上下反転 -->
  <defs>
    <linearGradient id="wingGradientLeftStun" x1="0%" y1="0%" x2="100%" y2="100%">
      <stop offset="0%" style="stop-color:#E6B3FF;stop-opacity:0.8" />
      <stop offset="50%" style="stop-color:#D8A2D8;stop-opacity:0.8" />
      <stop offset="100%" style="stop-color:#FFB6C1;stop-opacity:0.8" />
    </linearGradient>
  </defs>
  <ellipse cx="22" cy="42" rx="8" ry="12" fill="url(#wingGradientLeftStun)" stroke="#C8A2C8" stroke-width="1"/>
  
  <!-- 翼（右）- だらんと下がっている、上下反転 -->
  <defs>
    <linearGradient id="wingGradientRightStun" x1="0%" y1="0%" x2="100%" y2="100%">
      <stop offset="0%" style="stop-color:#E6B3FF;stop-opacity:0.8" />
      <stop offset="50%" style="stop-color:#D8A2D8;stop-opacity:0.8" />
      <stop offset="100%" style="stop-color:#FFB6C1;stop-opacity:0.8" />
    </linearGradient>
  </defs>
  <ellipse cx="42" cy="42" rx="8" ry="12" fill="url(#wingGradientRightStun)" stroke="#C8A2C8" stroke-width="1"/>
  
  <!-- 頭（少し傾いている） -->
  <circle cx="32" cy="20" r="10" fill="#B8E6B8" stroke="#90C695" stroke-width="1.5"/>
  
  <!-- 大きなクチバシ（少し傾いている） -->
  <polygon points="32,6 40,14 24,14" fill="#FF6347" stroke="#FF4500" stroke-width="1" transform="rotate(2 32 10)"/>
  <polygon points="32,8 38,12 26,12" fill="#FF7F50" transform="rotate(2 32 10)"/>
  
  <!-- ほっぺ（目の上側） -->
  <circle cx="26" cy="16" r="2.5" fill="#FFB6C1" opacity="0.7"/>
  <circle cx="38" cy="16" r="2.5" fill="#FFB6C1" opacity="0.7"/>
  
  <!-- 目（左）- ×印、上下反転 -->
  <circle cx="27" cy="20" r="3" fill="white" stroke="#333" stroke-width="0.8"/>
  <line x1="24.5" y1="17.5" x2="29.5" y2="22.5" stroke="#333" stroke-width="2"/>
  <line x1="29.5" y1="17.5" x2="24.5" y2="22.5" stroke="#333" stroke-width="2"/>
  
  <!-- 目（右）- ×印、上下反転 -->
  <circle cx="37" cy="20" r="3" fill="white" stroke="#333" stroke-width="0.8"/>
  <line x1="34.5" y1="17.5" x2="39.5" y2="22.5" stroke="#333" stroke-width="2"/>
  <line x1="39.5" y1="17.5" x2="34.5" y2="22.5" stroke="#333" stroke-width="2"/>
  
  <!-- リボン（少し傾いている、頭の上、画像では下の位置、横長の楕円） -->
  <ellipse cx="32" cy="27" rx="8" ry="3" fill="#FF69B4" stroke="#E91E63" stroke-width="0.8" transform="rotate(5 32 27)"/>
  <circle cx="32" cy="27" r="2" fill="#FF1493" stroke="#C2185B" stroke-width="0.5"/>
  
  <!-- 尻尾-->
  <ellipse cx="32" cy="52" rx="6" ry="4" fill="#B8E6B8" stroke="#90C695" stroke-width="1"/>
  
  <!-- 配達バッグ -->
  <rect x="26" y="42" width="12" height="8" rx="2" fill="#8B4513" stroke="#654321" stroke-width="1"/>
  <rect x="27" y="43" width="10" height="6" fill="#D2691E"/>
  <line x1="32" y1="42" x2="32" y2="50" stroke="#654321" stroke-width="1"/>
  
  <!-- 星（気絶エフェクト） -->
  <polygon points="32,2 34,6 38,6 35,9 36,13 32,11 28,13 29,9 26,6 30,6" fill="#FFD700" stroke="#FFA500" stroke-width="1"/>
  <polygon points="12,12 14,15 17,15 15,17 16,20 12,18 8,20 9,17 7,15 10,15" fill="#FFD700" stroke="#FFA500" stroke-width="1"/>
  <polygon points="52,18 54,21 57,21 55,23 56,26 52,24 48,26 49,23 47,21 50,21" fill="#FFD700" stroke="#FFA500" stroke-width="1"/>
</svg>
