<?xml version="1.0" encoding="UTF-8"?>
<svg width="32" height="32" viewBox="0 0 32 32" xmlns="http://www.w3.org/2000/svg">
  <!-- メイメイ - 気絶状態 -->
  
  <!-- 体（楕円形）- 少し傾いている -->
  <ellipse cx="16" cy="18" rx="8" ry="6" fill="#FFB6C1" stroke="#FF69B4" stroke-width="1" transform="rotate(5 16 18)"/>
  
  <!-- 翼（左）- だらんと下がっている -->
  <ellipse cx="10" cy="20" rx="4" ry="3" fill="#87CEEB" stroke="#4682B4" stroke-width="0.5" transform="rotate(10 10 20)"/>
  
  <!-- 翼（右）- だらんと下がっている -->
  <ellipse cx="22" cy="20" rx="4" ry="3" fill="#87CEEB" stroke="#4682B4" stroke-width="0.5" transform="rotate(-10 22 20)"/>
  
  <!-- 頭 - 少し傾いている -->
  <circle cx="16" cy="10" r="6" fill="#FFB6C1" stroke="#FF69B4" stroke-width="1"/>
  
  <!-- くちばし -->
  <polygon points="16,12 18,14 14,14" fill="#FFA500" stroke="#FF8C00" stroke-width="0.5"/>
  
  <!-- 目（左）- ×印 -->
  <circle cx="13" cy="9" r="2" fill="white" stroke="#333" stroke-width="0.5"/>
  <line x1="11.5" y1="7.5" x2="14.5" y2="10.5" stroke="#333" stroke-width="1"/>
  <line x1="14.5" y1="7.5" x2="11.5" y2="10.5" stroke="#333" stroke-width="1"/>
  
  <!-- 目（右）- ×印 -->
  <circle cx="19" cy="9" r="2" fill="white" stroke="#333" stroke-width="0.5"/>
  <line x1="17.5" y1="7.5" x2="20.5" y2="10.5" stroke="#333" stroke-width="1"/>
  <line x1="20.5" y1="7.5" x2="17.5" y2="10.5" stroke="#333" stroke-width="1"/>
  
  <!-- ほっぺ（左） -->
  <circle cx="10" cy="11" r="1.5" fill="#FFB6C1" opacity="0.7"/>
  
  <!-- ほっぺ（右） -->
  <circle cx="22" cy="11" r="1.5" fill="#FFB6C1" opacity="0.7"/>
  
  <!-- 配達バッグ -->
  <rect x="12" y="20" width="8" height="4" rx="1" fill="#8B4513" stroke="#654321" stroke-width="0.5"/>
  <rect x="13" y="21" width="6" height="2" fill="#D2691E"/>
  
  <!-- 足（左） -->
  <line x1="12" y1="24" x2="12" y2="28" stroke="#FFA500" stroke-width="1.5" stroke-linecap="round"/>
  <line x1="10" y1="28" x2="14" y2="28" stroke="#FFA500" stroke-width="1.5" stroke-linecap="round"/>
  
  <!-- 足（右） -->
  <line x1="20" y1="24" x2="20" y2="28" stroke="#FFA500" stroke-width="1.5" stroke-linecap="round"/>
  <line x1="18" y1="28" x2="22" y2="28" stroke="#FFA500" stroke-width="1.5" stroke-linecap="round"/>
  
  <!-- 星（気絶エフェクト） -->
  <polygon points="16,2 17,5 20,5 17.5,7 18.5,10 16,8 13.5,10 14.5,7 12,5 15,5" fill="#FFD700" stroke="#FFA500" stroke-width="0.5"/>
  <polygon points="8,8 9,10 11,10 9.5,11.5 10.5,13.5 8,12 5.5,13.5 6.5,11.5 5,10 7,10" fill="#FFD700" stroke="#FFA500" stroke-width="0.5"/>
  <polygon points="24,12 25,14 27,14 25.5,15.5 26.5,17.5 24,16 21.5,17.5 22.5,15.5 21,14 23,14" fill="#FFD700" stroke="#FFA500" stroke-width="0.5"/>
</svg>
